ffmpeg version 3.4.8-0ubuntu0.2 Copyright (c) 2000-2020 the FFmpeg developers
  built with gcc 7 (Ubuntu 7.5.0-3ubuntu1~18.04)
  configuration: --prefix=/usr --extra-version=0ubuntu0.2 --toolchain=hardened --libdir=/usr/lib/x86_64-linux-gnu --incdir=/usr/include/x86_64-linux-gnu --enable-gpl --disable-stripping --enable-avresample --enable-avisynth --enable-gnutls --enable-ladspa --enable-libass --enable-libbluray --enable-libbs2b --enable-libcaca --enable-libcdio --enable-libflite --enable-libfontconfig --enable-libfreetype --enable-libfribidi --enable-libgme --enable-libgsm --enable-libmp3lame --enable-libmysofa --enable-libopenjpeg --enable-libopenmpt --enable-libopus --enable-libpulse --enable-librubberband --enable-librsvg --enable-libshine --enable-libsnappy --enable-libsoxr --enable-libspeex --enable-libssh --enable-libtheora --enable-libtwolame --enable-libvorbis --enable-libvpx --enable-libwavpack --enable-libwebp --enable-libx265 --enable-libxml2 --enable-libxvid --enable-libzmq --enable-libzvbi --enable-omx --enable-openal --enable-opengl --enable-sdl2 --enable-libdc1394 --enable-libdrm --enable-libiec61883 --enable-chromaprint --enable-frei0r --enable-libopencv --enable-libx264 --enable-shared
  libavutil      55. 78.100 / 55. 78.100
  libavcodec     57.107.100 / 57.107.100
  libavformat    57. 83.100 / 57. 83.100
  libavdevice    57. 10.100 / 57. 10.100
  libavfilter     6.107.100 /  6.107.100
  libavresample   3.  7.  0 /  3.  7.  0
  libswscale      4.  8.100 /  4.  8.100
  libswresample   2.  9.100 /  2.  9.100
  libpostproc    54.  7.100 / 54.  7.100
[rawvideo @ 0x564130c76a20] Estimating duration from bitrate, this may be inaccurate
Input #0, rawvideo, from '../../SVC-Encoder-20220109T061506Z-001/SVC-Encoder/Dataset/RollerCoaster/ERP_8x8/tile_yuv/Tile_41_480x240.yuv':
  Duration: 00:00:10.00, start: 0.000000, bitrate: 41472 kb/s
    Stream #0:0: Video: rawvideo (I420 / 0x30323449), yuv420p, 480x240, 41472 kb/s, 30 tbr, 30 tbn, 30 tbc
Stream mapping:
  Stream #0:0 -> #0:0 (rawvideo (native) -> h264 (libx264))
Press [q] to stop, [?] for help
[libx264 @ 0x564130c83c60] using cpu capabilities: MMX2 SSE2Fast LZCNT SSSE3 SSE4.2 AVX
[libx264 @ 0x564130c83c60] profile High, level 2.1
Output #0, rawvideo, to 'RollerCoaster_Tile_41_480x240_x264_QP_20.h264':
  Metadata:
    encoder         : Lavf57.83.100
    Stream #0:0: Video: h264 (libx264), yuv420p, 480x240, q=-1--1, 30 fps, 30 tbn, 30 tbc
    Metadata:
      encoder         : Lavc57.107.100 libx264
    Side data:
      cpb: bitrate max/min/avg: 0/0/0 buffer size: 0 vbv_delay: -1
frame=  128 fps=0.0 q=26.0 PSNR=Y:nan U:nan V:nan *:nan size=     168kB time=00:00:02.83 bitrate= 484.6kbits/s speed=5.63x    frame=  241 fps=239 q=26.0 PSNR=Y:nan U:nan V:nan *:nan size=     256kB time=00:00:06.60 bitrate= 317.8kbits/s speed=6.54x    frame=  300 fps=214 q=26.0 LPSNR=Y:inf U:inf V:inf *:inf size=     559kB time=00:00:09.93 bitrate= 460.9kbits/s speed=7.07x    
video:559kB audio:0kB subtitle:0kB other streams:0kB global headers:0kB muxing overhead: 0.000000%
[libx264 @ 0x564130c83c60] frame I:2     Avg QP:18.51  size: 19303  PSNR Mean Y:47.71 U:50.80 V:51.04 Avg:48.54 Global:48.45
[libx264 @ 0x564130c83c60] frame P:77    Avg QP:20.14  size:  5525  PSNR Mean Y:44.48 U:49.75 V:49.65 Avg:45.63 Global:45.57
[libx264 @ 0x564130c83c60] frame B:221   Avg QP:25.45  size:   490  PSNR Mean Y:43.82 U:49.52 V:49.43 Avg:45.03 Global:44.94
[libx264 @ 0x564130c83c60] consecutive B-frames:  1.0%  2.0%  1.0% 96.0%
[libx264 @ 0x564130c83c60] mb I  I16..4:  3.4% 76.1% 20.4%
[libx264 @ 0x564130c83c60] mb P  I16..4:  0.3%  0.2%  0.0%  P16..4: 42.9% 28.7% 19.7%  0.0%  0.0%    skip: 8.2%
[libx264 @ 0x564130c83c60] mb B  I16..4:  0.0%  0.0%  0.0%  B16..8: 46.7%  4.8%  0.5%  direct: 0.4%  skip:47.6%  L0:38.7% L1:49.9% BI:11.4%
[libx264 @ 0x564130c83c60] 8x8 transform intra:70.7% inter:66.8%
[libx264 @ 0x564130c83c60] coded y,uvDC,uvAC intra: 79.2% 92.8% 63.3% inter: 16.8% 15.8% 0.3%
[libx264 @ 0x564130c83c60] i16 v,h,dc,p: 24% 31% 34% 12%
[libx264 @ 0x564130c83c60] i8 v,h,dc,ddl,ddr,vr,hd,vl,hu:  7% 20% 14% 12% 11%  6% 14%  8%  8%
[libx264 @ 0x564130c83c60] i4 v,h,dc,ddl,ddr,vr,hd,vl,hu: 10% 20%  9% 13% 12%  7% 13%  8%  7%
[libx264 @ 0x564130c83c60] i8c dc,h,v,p: 38% 33%  9% 20%
[libx264 @ 0x564130c83c60] Weighted P-Frames: Y:0.0% UV:0.0%
[libx264 @ 0x564130c83c60] ref P L0: 66.4% 19.6% 12.6%  1.4%
[libx264 @ 0x564130c83c60] ref B L0: 94.9%  4.5%  0.5%
[libx264 @ 0x564130c83c60] ref B L1: 97.3%  2.7%
[libx264 @ 0x564130c83c60] PSNR Mean Y:44.018 U:49.590 V:49.498 Avg:45.206 Global:45.107 kb/s:457.86
